<svg id="Layer_1" data-name="Layer 1" xmlns="http://www.w3.org/2000/svg" viewBox="0 0 563 420.3"><defs><style>.cls-1,.cls-8{fill:none;}.cls-1,.cls-2,.cls-3,.cls-4,.cls-5,.cls-6,.cls-8{stroke:#404040;stroke-width:4px;}.cls-1,.cls-2,.cls-4{stroke-miterlimit:10;}.cls-2,.cls-6{fill:#4ed1a1;}.cls-3{fill:#59afe1;}.cls-3,.cls-5,.cls-6,.cls-8{stroke-linejoin:round;}.cls-4{fill:#fff;}.cls-5{fill:#b3e3ff;}.cls-6,.cls-8{stroke-linecap:round;}.cls-7{fill:#404040;}</style></defs><title>02-1</title><path class="cls-1" d="M273.8,362.1H489.9m-158.4-41a41.06,41.06,0,0,1-41,41m41-41a41.06,41.06,0,0,1,41-41H587.4" transform="translate(-118.5 -85.2)"/><circle class="cls-2" cx="297.4" cy="194.9" r="21"/><circle class="cls-2" cx="393.7" cy="194.9" r="21"/><circle class="cls-3" cx="490" cy="194.9" r="21"/><path class="cls-1" d="M120.5,362.1h170" transform="translate(-118.5 -85.2)"/><circle class="cls-4" cx="23" cy="276.9" r="21"/><circle class="cls-4" cx="119" cy="276.9" r="21"/><circle class="cls-5" cx="296.4" cy="276.9" r="21"/><circle class="cls-5" cx="392.4" cy="276.9" r="21"/><path class="cls-6" d="M537.5,139.1h142v50h-142v-50Z" transform="translate(-118.5 -85.2)"/><path class="cls-7" d="M564,170.1v-4.7h-5.4v4.7h-1.5V159.5h1.5V164H564v-4.5h1.5v10.6H564Zm11.6-3.6a3.7,3.7,0,1,1-3.7-3.8A3.6,3.6,0,0,1,575.6,166.5Zm-1.5,0a2.23,2.23,0,1,0-4.4,0c0,1.7,1,2.6,2.2,2.6S574.1,168.2,574.1,166.5Zm5.8-3.6h1.6v1.3h-1.6V168a0.86,0.86,0,0,0,1,1,1.27,1.27,0,0,0,.6-0.1v1.2a7.72,7.72,0,0,1-1,.1,1.92,1.92,0,0,1-2-2.1v-4h-1.4v-1.3h0.4a1,1,0,0,0,1.1-1.1v-1.2h1.3v2.4h0Zm7.9-3.6v1.3a3.54,3.54,0,0,0-.6-0.1,1,1,0,0,0-1.1,1.2v1.2h4.8v7.2h-1.4v-5.9H586v5.9h-1.5v-5.9h-1.3v-1.3h1.3v-1.2a2.34,2.34,0,0,1,2.4-2.5,5.53,5.53,0,0,1,.9.1h0Zm2.3-.2a1,1,0,0,1,1,1A1,1,0,1,1,590.1,159.1Zm5.5,7.3-2.6-3.5h1.7l1.8,2.5,1.7-2.5h1.7l-2.6,3.5c0.4,0.6,2.2,3.1,2.7,3.7h-1.7l-1.9-2.7-1.8,2.7h-1.7l2.7-3.7h0Zm11.1,3.7h-1.4l5.1-10.6h1.4Zm18.7,0v-4.7H620v4.7h-1.5V159.5H620V164h5.4v-4.5h1.5v10.6h-1.5Zm4.9,0V159.5h6.5v1.4h-5v3.3h4.5v1.4h-4.5v3.3h5v1.4h-6.5v-0.2Zm15.7-3h-4.7l-1.1,3h-1.6l4.2-10.6h1.7l4.2,10.6h-1.6l-1.1-3h0Zm-4.2-1.3h3.7l-1.8-4.8Zm9.2,4.3V159.5h3.7a5.3,5.3,0,0,1,0,10.6H651Zm3.6-1.3c2,0,3.6-1.3,3.6-4s-1.6-4-3.6-4h-2.2v8h2.2Z" transform="translate(-118.5 -85.2)"/><path class="cls-8" d="M608.5,234.9V211.4m10.8,14.8-10.8,10.9-10.9-10.9" transform="translate(-118.5 -85.2)"/><path class="cls-5" d="M461.9,453.5h100v50h-100v-50Z" transform="translate(-118.5 -85.2)"/><path class="cls-7" d="M497.3,484.5v-8.3l-3.6,8.3h-1.3l-3.6-8.3v8.3h-1.5V473.9h2l3.7,8.7,3.8-8.7h2v10.6h-1.5Zm6.4-4.1,1.9-.3a0.65,0.65,0,0,0,.6-0.5,1.36,1.36,0,0,0-1.6-1.3,1.5,1.5,0,0,0-1.6,1.5l-1.4-.3a2.79,2.79,0,0,1,3-2.3c2.2,0,3,1.2,3,2.6v3.6c0,0.6.1,1,.1,1.2h-1.4c0-.2-0.1-0.5-0.1-1a2.57,2.57,0,0,1-2.3,1.2,2.2,2.2,0,1,1-.2-4.4h0Zm2.5,1v-0.3l-2.2.3a1.11,1.11,0,0,0-1.1,1.1,1.06,1.06,0,0,0,1.2,1A1.85,1.85,0,0,0,506.2,481.4Zm4.9,0.8a1.51,1.51,0,0,0,1.7,1.3,1.06,1.06,0,0,0,1.2-1,1,1,0,0,0-.9-0.9l-1.2-.3a2,2,0,0,1-1.8-2,2.54,2.54,0,0,1,2.6-2.3,2.46,2.46,0,0,1,2.7,1.9l-1.2.5a1.45,1.45,0,0,0-1.5-1.2,1.13,1.13,0,0,0-1.2,1,1,1,0,0,0,.8.9l1.2,0.3a2.22,2.22,0,0,1,2,2.1,2.4,2.4,0,0,1-2.6,2.2,2.66,2.66,0,0,1-2.9-2.1Zm8.8-4.9h1.6v1.3h-1.6v3.8a0.86,0.86,0,0,0,1,1,1.27,1.27,0,0,0,.6-0.1v1.2a7.72,7.72,0,0,1-1,.1,1.92,1.92,0,0,1-2-2.1v-4h-1.4v-1.3h0.4a1,1,0,0,0,1.1-1.1V475h1.3v2.3h0Zm10.4,5.2a3.27,3.27,0,0,1-3.2,2.3,3.6,3.6,0,0,1-3.6-3.9,3.54,3.54,0,0,1,3.4-3.8c2.2,0,3.5,1.5,3.5,3.8v0.5H525a2.16,2.16,0,0,0,2.2,2.2,1.82,1.82,0,0,0,2-1.5Zm-1.4-2.3a1.79,1.79,0,0,0-2-1.8,2,2,0,0,0-2,1.8h4Zm8-1.5h-0.6c-1.2,0-2,.6-2,2.2v3.6h-1.4v-7.2h1.4v1.3a2.27,2.27,0,0,1,2.2-1.4H537v1.5h-0.1Z" transform="translate(-118.5 -85.2)"/><path class="cls-8" d="M511.9,407v23.5m-10.8-14.8,10.8-10.9,10.9,10.9" transform="translate(-118.5 -85.2)"/><path class="cls-7" d="M343.1,85.6a2.87,2.87,0,0,1,3.2,2.9,2.51,2.51,0,0,1-1.6,2.3,2.59,2.59,0,0,1,1.9,2.6c0,1.7-1.3,2.9-3.3,2.9h-3.7V85.6h3.5Zm-0.2,4.6a1.71,1.71,0,1,0,0-3.4h-1.8v3.4h1.8Zm0.2,4.7a1.77,1.77,0,0,0,2-1.7,1.64,1.64,0,0,0-1.9-1.7h-2.1v3.4h2Zm12.5-.7a3.27,3.27,0,0,1-3.2,2.3,3.6,3.6,0,0,1-3.6-3.9,3.54,3.54,0,0,1,3.4-3.8c2.2,0,3.5,1.5,3.5,3.8v0.5h-5.4a2.16,2.16,0,0,0,2.2,2.2,1.82,1.82,0,0,0,2-1.5Zm-1.4-2.3a1.79,1.79,0,0,0-2-1.8,2,2,0,0,0-2,1.8h4Zm5.9-1.6v5.9h-1.5V90.3h-1.3V89h1.3V87.8a2.34,2.34,0,0,1,2.4-2.5,0.91,0.91,0,0,1,.8.2v1.3a3.54,3.54,0,0,0-.6-0.1,1,1,0,0,0-1.1,1.2V89h1.7v1.3h-1.7Zm10.5,2.3a3.7,3.7,0,1,1-3.7-3.8A3.6,3.6,0,0,1,370.6,92.6Zm-1.5,0a2.23,2.23,0,1,0-2.2,2.6A2.34,2.34,0,0,0,369.1,92.6Zm8-2.2h-0.6c-1.2,0-2,.6-2,2.2v3.6h-1.4V89h1.4v1.3a2.27,2.27,0,0,1,2.2-1.4h0.5v1.5h-0.1Zm8.5,3.8a3.27,3.27,0,0,1-3.2,2.3,3.6,3.6,0,0,1-3.6-3.9,3.54,3.54,0,0,1,3.4-3.8c2.2,0,3.5,1.5,3.5,3.8v0.5h-5.4a2.16,2.16,0,0,0,2.2,2.2,1.82,1.82,0,0,0,2-1.5Zm-1.4-2.3a1.79,1.79,0,0,0-2-1.8,2,2,0,0,0-2,1.8h4Zm11.7,0h-1.6v4.3h-1.5V85.6h4a3.13,3.13,0,0,1,3.3,3.2,3,3,0,0,1-2.6,3l2.5,4.5h-1.7l-2.4-4.4h0Zm0.7-1.4a1.81,1.81,0,1,0,0-3.6h-2.2v3.6h2.2Zm12.1,3.7a3.27,3.27,0,0,1-3.2,2.3,3.6,3.6,0,0,1-3.6-3.9,3.54,3.54,0,0,1,3.4-3.8c2.2,0,3.5,1.5,3.5,3.8v0.5h-5.4a2.16,2.16,0,0,0,2.2,2.2,1.82,1.82,0,0,0,2-1.5Zm-1.4-2.3a1.79,1.79,0,0,0-2-1.8,2,2,0,0,0-2,1.8h4Zm4.6,2a1.51,1.51,0,0,0,1.7,1.3,1,1,0,0,0,1.2-1,0.89,0.89,0,0,0-.9-0.9l-1.2-.3a2,2,0,0,1-1.8-2,2.54,2.54,0,0,1,2.6-2.3,2.46,2.46,0,0,1,2.7,1.9l-1.2.5a1.45,1.45,0,0,0-1.5-1.2,1.13,1.13,0,0,0-1.2,1,1,1,0,0,0,.8.9l1.2,0.3a2.22,2.22,0,0,1,2,2.1,2.4,2.4,0,0,1-2.6,2.2,2.66,2.66,0,0,1-2.9-2.1l1.1-.4h0ZM425,94.2a3.27,3.27,0,0,1-3.2,2.3,3.6,3.6,0,0,1-3.6-3.9,3.54,3.54,0,0,1,3.4-3.8c2.2,0,3.5,1.5,3.5,3.8v0.5h-5.4a2.16,2.16,0,0,0,2.2,2.2,1.82,1.82,0,0,0,2-1.5Zm-1.4-2.3a1.79,1.79,0,0,0-2-1.8,2,2,0,0,0-2,1.8h4Zm5.9-2.9h1.6v1.3h-1.6V94a0.86,0.86,0,0,0,1,1,1.27,1.27,0,0,0,.6-0.1v1.2a7.72,7.72,0,0,1-1,.1,1.92,1.92,0,0,1-2-2.1v-4h-1.4V89h0.4a1,1,0,0,0,1.1-1.1V86.7h1.3V89Zm6.1,0h1.6v1.3h-1.6V94a0.86,0.86,0,0,0,1,1,1.27,1.27,0,0,0,.6-0.1v1.2a7.72,7.72,0,0,1-1,.1,1.92,1.92,0,0,1-2-2.1v-4h-1.4V89h0.4a1,1,0,0,0,1.1-1.1V86.7h1.3V89Zm4.9-3.8a1,1,0,0,1,1,1,1,1,0,1,1-2,0A1,1,0,0,1,440.5,85.2Zm-0.7,11V89h1.4v7.2h-1.4Zm5.9,0h-1.4V89h1.4v1a2.41,2.41,0,0,1,2.2-1.2,2.52,2.52,0,0,1,2.6,2.8v4.6h-1.4V91.9a1.56,1.56,0,0,0-1.7-1.8,1.77,1.77,0,0,0-1.7,2v4.1Zm8.7,0.1a2.12,2.12,0,0,0,4.2-.5v-1a2.26,2.26,0,0,1-2.2,1.2,3.51,3.51,0,0,1,0-7,2.21,2.21,0,0,1,2.2,1.1v-1H460v6.7a3.3,3.3,0,0,1-3.6,3.6,3.11,3.11,0,0,1-3.3-2.7Zm4.2-3.9a2.05,2.05,0,0,0-2.1-2.3,2.11,2.11,0,0,0-2.1,2.3,2.05,2.05,0,0,0,2.1,2.3A2.11,2.11,0,0,0,458.6,92.4Z" transform="translate(-118.5 -85.2)"/></svg>