<svg id="Layer_1" data-name="Layer 1" xmlns="http://www.w3.org/2000/svg" viewBox="0 0 539 493.5"><defs><style>.cls-1,.cls-7{fill:none;}.cls-1,.cls-2,.cls-3,.cls-4,.cls-5,.cls-7,.cls-8{stroke:#404040;stroke-width:4px;}.cls-1,.cls-2,.cls-3{stroke-miterlimit:10;}.cls-2,.cls-5{fill:#4ed1a1;}.cls-3,.cls-8{fill:#fff;}.cls-4{fill:#b3e3ff;}.cls-4,.cls-5,.cls-7,.cls-8{stroke-linejoin:round;}.cls-5,.cls-7,.cls-8{stroke-linecap:round;}.cls-6{fill:#404040;}</style></defs><title>06-1</title><path class="cls-1" d="M285.8,366.1H501.9m-158.4-41a41.06,41.06,0,0,1-41,41m41-41a41.06,41.06,0,0,1,41-41H599.4" transform="translate(-130.5 -89.4)"/><circle class="cls-2" cx="297.4" cy="194.7" r="21"/><circle class="cls-2" cx="393.7" cy="194.7" r="21"/><circle class="cls-2" cx="490" cy="194.7" r="21"/><path class="cls-1" d="M132.5,366.1h170" transform="translate(-130.5 -89.4)"/><circle class="cls-3" cx="23" cy="276.7" r="21"/><circle class="cls-3" cx="119" cy="276.7" r="21"/><circle class="cls-4" cx="296.4" cy="276.7" r="21"/><circle class="cls-4" cx="392.4" cy="276.7" r="21"/><path class="cls-5" d="M573.5,143.1h94v50h-94v-50Z" transform="translate(-130.5 -89.4)"/><path class="cls-6" d="M606.2,174.1v-4.7h-5.4v4.7h-1.5V163.5h1.5V168h5.4v-4.5h1.5v10.6h-1.5Zm11.5-3.6a3.7,3.7,0,1,1-3.7-3.8A3.6,3.6,0,0,1,617.7,170.5Zm-1.4,0a2.23,2.23,0,1,0-2.2,2.6A2.4,2.4,0,0,0,616.3,170.5Zm5.8-3.6h1.6v1.3h-1.6V172a0.86,0.86,0,0,0,1,1,1.27,1.27,0,0,0,.6-0.1v1.2a7.72,7.72,0,0,1-1,.1,1.92,1.92,0,0,1-2-2.1v-4h-1.4v-1.3h0.4a1,1,0,0,0,1.1-1.1v-1.2h1.3v2.4h0Zm7.8-3.6v1.3a3.54,3.54,0,0,0-.6-0.1,1,1,0,0,0-1.1,1.2v1.2H633v7.2h-1.4v-5.9h-3.4v5.9h-1.5v-5.9h-1.3v-1.3h1.3v-1.2a2.34,2.34,0,0,1,2.4-2.5A2.77,2.77,0,0,1,629.9,163.3Zm2.3-.2a1,1,0,0,1,1,1,1,1,0,0,1-2,0A1,1,0,0,1,632.2,163.1Zm5.5,7.3-2.6-3.5h1.7l1.8,2.5,1.7-2.5H642l-2.6,3.5c0.4,0.6,2.2,3.1,2.7,3.7h-1.7l-1.9-2.7-1.8,2.7H635l2.7-3.7h0Z" transform="translate(-130.5 -89.4)"/><path class="cls-7" d="M620.5,238.9V215.4m10.8,14.8-10.8,10.9-10.9-10.9" transform="translate(-130.5 -89.4)"/><path class="cls-4" d="M474.2,455.9h100v50h-100v-50Z" transform="translate(-130.5 -89.4)"/><path class="cls-6" d="M509.5,486.9v-8.3l-3.6,8.3h-1.3l-3.6-8.3v8.3h-1.5V476.3h2l3.7,8.7,3.8-8.7h2v10.6h-1.5Zm6.4-4.2,1.9-.3a0.65,0.65,0,0,0,.6-0.5,1.36,1.36,0,0,0-1.6-1.3,1.5,1.5,0,0,0-1.6,1.5l-1.4-.3a2.79,2.79,0,0,1,3-2.3c2.2,0,3,1.2,3,2.6v3.6c0,0.6.1,1,.1,1.2h-1.4c0-.2-0.1-0.5-0.1-1a2.57,2.57,0,0,1-2.3,1.2,2.21,2.21,0,0,1-2.4-2.2,2.29,2.29,0,0,1,2.2-2.2h0Zm2.5,1.1v-0.3l-2.2.3a1.11,1.11,0,0,0-1.1,1.1,1.06,1.06,0,0,0,1.2,1A1.9,1.9,0,0,0,518.4,483.8Zm5,0.7a1.51,1.51,0,0,0,1.7,1.3,1,1,0,0,0,1.2-1,1,1,0,0,0-.9-0.9l-1.2-.3a2,2,0,0,1-1.8-2,2.54,2.54,0,0,1,2.6-2.3,2.46,2.46,0,0,1,2.7,1.9l-1.2.5a1.45,1.45,0,0,0-1.5-1.2,1.13,1.13,0,0,0-1.2,1,1,1,0,0,0,.8.9l1.2,0.3a2.22,2.22,0,0,1,2,2.1,2.4,2.4,0,0,1-2.6,2.2,2.66,2.66,0,0,1-2.9-2.1l1.1-.4h0Zm8.8-4.9h1.6v1.3h-1.6v3.8a0.86,0.86,0,0,0,1,1,1.27,1.27,0,0,0,.6-0.1v1.2a7.72,7.72,0,0,1-1,.1,1.92,1.92,0,0,1-2-2.1v-4h-1.4v-1.3h0.4a1,1,0,0,0,1.1-1.1v-1.2h1.3v2.4h0Zm10.4,5.2a3.27,3.27,0,0,1-3.2,2.3,3.6,3.6,0,0,1-3.6-3.9,3.54,3.54,0,0,1,3.4-3.8c2.2,0,3.5,1.5,3.5,3.8v0.4h-5.4a2.16,2.16,0,0,0,2.2,2.2,1.82,1.82,0,0,0,2-1.5Zm-1.4-2.3a1.79,1.79,0,0,0-2-1.8,2,2,0,0,0-2,1.8h4Zm8-1.4h-0.6c-1.2,0-2,.6-2,2.2v3.6h-1.4v-7.2h1.4V481a2.27,2.27,0,0,1,2.2-1.4h0.5v1.5h-0.1Z" transform="translate(-130.5 -89.4)"/><path class="cls-7" d="M524.2,409.3v23.5M513.3,418l10.9-10.8L535,418" transform="translate(-130.5 -89.4)"/><path class="cls-8" d="M421.4,284.1h13m-11.1-4.6,9.2,9.1m0-9.1-9.2,9.1m4.6-11v13" transform="translate(-130.5 -89.4)"/><path class="cls-6" d="M331.4,574.6a5.2,5.2,0,0,1,5.3-5.5,4.58,4.58,0,0,1,4.7,3.4l-1.4.5a3.16,3.16,0,0,0-3.3-2.5,3.84,3.84,0,0,0-3.8,4.2c0,2.8,1.8,4.2,3.8,4.2a3.39,3.39,0,0,0,3.4-2.5l1.3,0.5a4.61,4.61,0,0,1-4.7,3.4,5.56,5.56,0,0,1-5.3-5.7h0Zm19,1.7a3.7,3.7,0,1,1-3.7-3.8A3.6,3.6,0,0,1,350.4,576.3Zm-1.4,0a2.23,2.23,0,1,0-4.4,0c0,1.7,1,2.6,2.2,2.6S349,578,349,576.3Zm4,3.6v-7.2h1.3v1a2.51,2.51,0,0,1,2.2-1.2,2.24,2.24,0,0,1,2.2,1.4,2.72,2.72,0,0,1,2.4-1.4,2.47,2.47,0,0,1,2.5,2.7v4.7h-1.4v-4.5a1.44,1.44,0,0,0-1.5-1.6,1.71,1.71,0,0,0-1.7,1.8V580h-1.4v-4.5a1.4,1.4,0,0,0-1.5-1.6,1.71,1.71,0,0,0-1.7,1.8V580H353v-0.1Zm13.6,0v-7.2h1.3v1a2.51,2.51,0,0,1,2.2-1.2,2.24,2.24,0,0,1,2.2,1.4,2.72,2.72,0,0,1,2.4-1.4,2.47,2.47,0,0,1,2.5,2.7v4.7h-1.4v-4.5a1.44,1.44,0,0,0-1.5-1.6,1.71,1.71,0,0,0-1.7,1.8V580h-1.4v-4.5a1.4,1.4,0,0,0-1.5-1.6,1.71,1.71,0,0,0-1.7,1.8V580h-1.4v-0.1Zm14.3-11a1,1,0,0,1,0,2A1,1,0,0,1,380.9,568.9Zm-0.7,11v-7.2h1.4v7.2h-1.4Zm6.4-7.2h1.6V574h-1.6v3.8a0.86,0.86,0,0,0,1,1,1.27,1.27,0,0,0,.6-0.1v1.2a7.72,7.72,0,0,1-1,.1,1.92,1.92,0,0,1-2-2.1v-4h-1.4v-1.3h0.4a1,1,0,0,0,1.1-1.1v-1.2h1.3v2.4h0Zm10.6,0h1.6V574h-1.6v3.8a0.86,0.86,0,0,0,1,1,1.27,1.27,0,0,0,.6-0.1v1.2a7.72,7.72,0,0,1-1,.1,1.92,1.92,0,0,1-2-2.1v-4h-1.4v-1.3h0.4a1,1,0,0,0,1.1-1.1v-1.2h1.3v2.4h0Zm10.9,3.6a3.7,3.7,0,1,1-3.7-3.8A3.6,3.6,0,0,1,408.1,576.3Zm-1.5,0a2.23,2.23,0,1,0-4.4,0c0,1.7,1,2.6,2.2,2.6S406.6,578,406.6,576.3Zm8.5,3.6V569h1.4v4.7a2.68,2.68,0,0,1,2.4-1.2c2.2,0,3.3,1.7,3.3,3.8s-1.2,3.8-3.4,3.8a2.54,2.54,0,0,1-2.3-1.2v1h-1.4Zm3.6-6.2a2.23,2.23,0,0,0-2.1,2.5c0,1.6.9,2.6,2.1,2.6s2.1-1,2.1-2.6S420,573.7,418.7,573.7Zm12.4,4.2a3.27,3.27,0,0,1-3.2,2.3,3.6,3.6,0,0,1-3.6-3.9,3.54,3.54,0,0,1,3.4-3.8c2.2,0,3.5,1.5,3.5,3.8v0.4h-5.4a2.16,2.16,0,0,0,2.2,2.2,1.82,1.82,0,0,0,2-1.5Zm-1.5-2.3a1.79,1.79,0,0,0-2-1.8,2,2,0,0,0-2,1.8h4Zm12.6-1.5h-0.6c-1.2,0-2,.6-2,2.2v3.6h-1.4v-7.2h1.4V574a2.27,2.27,0,0,1,2.2-1.4h0.5v1.5h-0.1Zm8.4,3.8a3.27,3.27,0,0,1-3.2,2.3,3.6,3.6,0,0,1-3.6-3.9,3.54,3.54,0,0,1,3.4-3.8c2.2,0,3.5,1.5,3.5,3.8v0.4h-5.4a2.16,2.16,0,0,0,2.2,2.2,1.82,1.82,0,0,0,2-1.5Zm-1.4-2.3a1.79,1.79,0,0,0-2-1.8,2,2,0,0,0-2,1.8h4Zm7.2,4.3H455l-2.9-7.2h1.6l2.1,5.6,2.1-5.6h1.5l-3,7.2h0Zm11-2a3.27,3.27,0,0,1-3.2,2.3,3.6,3.6,0,0,1-3.6-3.9,3.54,3.54,0,0,1,3.4-3.8c2.2,0,3.5,1.5,3.5,3.8v0.4H462a2.16,2.16,0,0,0,2.2,2.2,1.82,1.82,0,0,0,2-1.5Zm-1.4-2.3a1.79,1.79,0,0,0-2-1.8,2,2,0,0,0-2,1.8h4Zm8-1.5h-0.6c-1.2,0-2,.6-2,2.2v3.6H470v-7.2h1.4V574a2.27,2.27,0,0,1,2.2-1.4h0.5v1.5H474Zm4.5-1.4h1.6V574h-1.6v3.8a0.86,0.86,0,0,0,1,1,1.27,1.27,0,0,0,.6-0.1v1.2a7.72,7.72,0,0,1-1,.1,1.92,1.92,0,0,1-2-2.1v-4h-1.4v-1.3h0.4a1,1,0,0,0,1.1-1.1v-1.2h1.3v2.4h0Zm10.4,5.2a3.27,3.27,0,0,1-3.2,2.3,3.6,3.6,0,0,1-3.6-3.9,3.54,3.54,0,0,1,3.4-3.8c2.2,0,3.5,1.5,3.5,3.8v0.4h-5.4a2.16,2.16,0,0,0,2.2,2.2,1.82,1.82,0,0,0,2-1.5Zm-1.4-2.3a1.79,1.79,0,0,0-2-1.8,2,2,0,0,0-2,1.8h4Zm9.1,3.2a2.33,2.33,0,0,1-2.2,1.3c-2.1,0-3.4-1.7-3.4-3.8a3.6,3.6,0,0,1,3.4-3.8,2.12,2.12,0,0,1,2.2,1.2V569H498v9.5a10.86,10.86,0,0,0,.1,1.3h-1.4C496.7,579.6,496.6,579.3,496.6,578.8Zm-2.1.1c1.3,0,2.1-1.1,2.1-2.6s-0.8-2.5-2.1-2.5-2.1,1-2.1,2.5S493.1,578.9,494.5,578.9Z" transform="translate(-130.5 -89.4)"/><path class="cls-8" d="M300.1,574.4h13M302,569.8l9.2,9.2m0-9.2L302,579m4.6-11.1v13" transform="translate(-130.5 -89.4)"/><path class="cls-6" d="M342.6,89.8a2.87,2.87,0,0,1,3.2,2.9,2.41,2.41,0,0,1-1.6,2.3,2.59,2.59,0,0,1,1.9,2.6c0,1.7-1.3,2.9-3.3,2.9h-3.7V89.8h3.5Zm-0.2,4.6a1.71,1.71,0,1,0,0-3.4h-1.8v3.4h1.8Zm0.2,4.7a1.77,1.77,0,0,0,2-1.7,1.64,1.64,0,0,0-1.9-1.7h-2.1v3.4h2Zm12.5-.8a3.27,3.27,0,0,1-3.2,2.3,3.6,3.6,0,0,1-3.6-3.9,3.54,3.54,0,0,1,3.4-3.8c2.2,0,3.5,1.5,3.5,3.8v0.4h-5.4a2.16,2.16,0,0,0,2.2,2.2,1.82,1.82,0,0,0,2-1.5ZM353.7,96a1.79,1.79,0,0,0-2-1.8,2,2,0,0,0-2,1.8h4Zm5.9-1.5v5.9h-1.5V94.5h-1.3V93.2h1.3V92a2.34,2.34,0,0,1,2.4-2.5,0.91,0.91,0,0,1,.8.2V91a3.54,3.54,0,0,0-.6-0.1,1,1,0,0,0-1.1,1.2v1.1h1.7v1.3h-1.7Zm10.5,2.3a3.7,3.7,0,1,1-3.7-3.8A3.6,3.6,0,0,1,370.1,96.8Zm-1.5,0a2.23,2.23,0,1,0-2.2,2.6A2.34,2.34,0,0,0,368.6,96.8Zm8-2.2H376c-1.2,0-2,.6-2,2.2v3.6h-1.4V93.2H374v1.3a2.27,2.27,0,0,1,2.2-1.4h0.5v1.5h-0.1Zm8.5,3.7a3.27,3.27,0,0,1-3.2,2.3,3.6,3.6,0,0,1-3.6-3.9,3.54,3.54,0,0,1,3.4-3.8c2.2,0,3.5,1.5,3.5,3.8v0.4h-5.4a2.16,2.16,0,0,0,2.2,2.2,1.82,1.82,0,0,0,2-1.5ZM383.7,96a1.79,1.79,0,0,0-2-1.8,2,2,0,0,0-2,1.8h4Zm11.7,0h-1.6v4.3h-1.5V89.8h4a3.13,3.13,0,0,1,3.3,3.2,3,3,0,0,1-2.6,3l2.5,4.5h-1.7L395.4,96h0Zm0.7-1.3a1.81,1.81,0,1,0,0-3.6h-2.2v3.6h2.2Zm12.1,3.6a3.27,3.27,0,0,1-3.2,2.3,3.6,3.6,0,0,1-3.6-3.9,3.54,3.54,0,0,1,3.4-3.8c2.2,0,3.5,1.5,3.5,3.8v0.4h-5.4a2.16,2.16,0,0,0,2.2,2.2,1.82,1.82,0,0,0,2-1.5ZM406.8,96a1.79,1.79,0,0,0-2-1.8,2,2,0,0,0-2,1.8h4Zm7.2,4.4h-1.4l-2.9-7.2h1.6l2.1,5.6,2.1-5.6H417l-3,7.2h0Zm11-2.1a3.27,3.27,0,0,1-3.2,2.3,3.6,3.6,0,0,1-3.6-3.9,3.54,3.54,0,0,1,3.4-3.8c2.2,0,3.5,1.5,3.5,3.8v0.4h-5.4a2.16,2.16,0,0,0,2.2,2.2,1.82,1.82,0,0,0,2-1.5ZM423.6,96a1.79,1.79,0,0,0-2-1.8,2,2,0,0,0-2,1.8h4Zm8-1.4H431c-1.2,0-2,.6-2,2.2v3.6h-1.4V93.2H429v1.3a2.27,2.27,0,0,1,2.2-1.4h0.5v1.5h-0.1Zm4.5-1.4h1.6v1.3h-1.6v3.8a0.86,0.86,0,0,0,1,1,1.27,1.27,0,0,0,.6-0.1v1.2a7.72,7.72,0,0,1-1,.1,1.92,1.92,0,0,1-2-2.1v-4h-1.4V93.1h0.4a1,1,0,0,0,1.1-1.1V90.8h1.3v2.4Zm4.9-3.8a1,1,0,0,1,0,2A1,1,0,0,1,441,89.4Zm-0.7,11V93.2h1.4v7.2h-1.4Zm5.9,0h-1.4V93.2h1.4v1a2.41,2.41,0,0,1,2.2-1.2c1.7,0,2.6,1.2,2.6,2.9v4.6h-1.4V96.2a1.56,1.56,0,0,0-1.7-1.8,1.77,1.77,0,0,0-1.7,2v4Zm8.7,0.1a2.12,2.12,0,0,0,4.2-.5V99a2.26,2.26,0,0,1-2.2,1.2,3.51,3.51,0,0,1,0-7,2.21,2.21,0,0,1,2.2,1.1v-1h1.4V100a3.3,3.3,0,0,1-3.6,3.6,3.11,3.11,0,0,1-3.3-2.7Zm4.2-3.9a2.05,2.05,0,0,0-2.1-2.3,2.11,2.11,0,0,0-2.1,2.3,2.05,2.05,0,0,0,2.1,2.3A2.16,2.16,0,0,0,459.1,96.6Z" transform="translate(-130.5 -89.4)"/></svg>