<svg id="Layer_1" data-name="Layer 1" xmlns="http://www.w3.org/2000/svg" viewBox="0 0 638.2 422.6"><defs><style>.cls-1{fill:#404040;}.cls-2,.cls-7{fill:none;}.cls-2,.cls-3,.cls-4,.cls-5,.cls-6,.cls-7{stroke:#404040;stroke-width:4px;}.cls-2,.cls-3,.cls-4{stroke-miterlimit:10;}.cls-3,.cls-6{fill:#4ed1a1;}.cls-4{fill:#fff;}.cls-5{fill:#b3e3ff;}.cls-5,.cls-6,.cls-7{stroke-linejoin:round;}.cls-6,.cls-7{stroke-linecap:round;}</style></defs><title>06-2</title><path class="cls-1" d="M350.6,795.6h-4.7l-1.1,3h-1.6l4.2-10.6h1.7l4.2,10.6h-1.6Zm-4.2-1.4h3.7l-1.8-4.8-1.9,4.8h0Zm10.9-1.6v5.9h-1.5v-5.9h-1.3v-1.3h1.3v-1.2a2.34,2.34,0,0,1,2.4-2.5,0.91,0.91,0,0,1,.8.2v1.3a3.54,3.54,0,0,0-.6-0.1,1,1,0,0,0-1.1,1.2v1.1H359v1.3h-1.7Zm5.9-1.3h1.6v1.3h-1.6v3.8a0.86,0.86,0,0,0,1,1,1.27,1.27,0,0,0,.6-0.1v1.2a7.72,7.72,0,0,1-1,.1,1.92,1.92,0,0,1-2-2.1v-4h-1.4v-1.3h0.4a1,1,0,0,0,1.1-1.1v-1.2h1.3v2.4h0Zm10.4,5.2a3.27,3.27,0,0,1-3.2,2.3,3.6,3.6,0,0,1-3.6-3.9,3.56,3.56,0,0,1,3.5-3.8c2.2,0,3.5,1.5,3.5,3.8v0.4h-5.4a2.16,2.16,0,0,0,2.2,2.2,1.82,1.82,0,0,0,2-1.5Zm-1.4-2.3a1.79,1.79,0,0,0-2-1.8,2,2,0,0,0-2,1.8h4Zm8-1.4h-0.6c-1.2,0-2,.6-2,2.2v3.6h-1.4v-7.2h1.4v1.3a2.27,2.27,0,0,1,2.2-1.4h0.5v1.5h-0.1Zm10,1.4h-1.6v4.3h-1.5V787.9h4a3.13,3.13,0,0,1,3.3,3.2,3,3,0,0,1-2.6,3l2.5,4.5h-1.7l-2.4-4.4h0Zm0.6-1.3a1.81,1.81,0,1,0,0-3.6h-2.2v3.6h2.2Zm12.2,3.6a3.27,3.27,0,0,1-3.2,2.3,3.6,3.6,0,0,1-3.6-3.9,3.54,3.54,0,0,1,3.4-3.8c2.2,0,3.5,1.5,3.5,3.8v0.4h-5.4a2.16,2.16,0,0,0,2.2,2.2,1.82,1.82,0,0,0,2-1.5Zm-1.5-2.3a1.79,1.79,0,0,0-2-1.8,2,2,0,0,0-2,1.8h4Zm7.2,4.3h-1.4l-2.9-7.2H406l2.1,5.6,2.1-5.6h1.5l-3,7.2h0Zm11-2a3.27,3.27,0,0,1-3.2,2.3,3.6,3.6,0,0,1-3.6-3.9,3.54,3.54,0,0,1,3.4-3.8c2.2,0,3.5,1.5,3.5,3.8v0.4h-5.4a2.16,2.16,0,0,0,2.2,2.2,1.82,1.82,0,0,0,2-1.5Zm-1.4-2.3a1.79,1.79,0,0,0-2-1.8,2,2,0,0,0-2,1.8h4Zm8-1.4h-0.6c-1.2,0-2,.6-2,2.2v3.6h-1.4v-7.2h1.4v1.3a2.27,2.27,0,0,1,2.2-1.4h0.5v1.5h-0.1Zm4.6-1.5h1.6v1.3h-1.6v3.8a0.86,0.86,0,0,0,1,1,1.27,1.27,0,0,0,.6-0.1v1.2a7.72,7.72,0,0,1-1,.1,1.92,1.92,0,0,1-2-2.1v-4h-1.4v-1.3h0.4a1,1,0,0,0,1.1-1.1v-1.2h1.3v2.4h0Zm4.8-3.7a0.94,0.94,0,0,1,1,1A1,1,0,1,1,435.7,787.6ZM435,798.5v-7.2h1.4v7.2H435Zm6,0h-1.4v-7.2H441v1a2.41,2.41,0,0,1,2.2-1.2c1.7,0,2.6,1.2,2.6,2.9v4.6h-1.4v-4.3a1.56,1.56,0,0,0-1.7-1.8,1.77,1.77,0,0,0-1.7,2v4Zm8.6,0.1a2.12,2.12,0,0,0,4.2-.5v-1a2.26,2.26,0,0,1-2.2,1.2,3.51,3.51,0,0,1,0-7,2.21,2.21,0,0,1,2.2,1.1v-1h1.4v6.7a3.3,3.3,0,0,1-3.6,3.6,3.11,3.11,0,0,1-3.3-2.7l1.3-.4h0Zm4.2-3.9a2.05,2.05,0,0,0-2.1-2.3,2.11,2.11,0,0,0-2.1,2.3A2.11,2.11,0,1,0,453.8,794.7Z" transform="translate(-80.9 -787.6)"/><path class="cls-2" d="M236.2,1066.2H452.3m-158.4-41a41.06,41.06,0,0,1-41,41m41-41a41.06,41.06,0,0,1,41-41H646.1" transform="translate(-80.9 -787.6)"/><circle class="cls-3" cx="297.4" cy="196.6" r="21"/><circle class="cls-3" cx="393.6" cy="196.6" r="21"/><circle class="cls-3" cx="489.9" cy="196.6" r="21"/><circle class="cls-3" cx="586.2" cy="196.6" r="21"/><path class="cls-2" d="M82.9,1066.2h170" transform="translate(-80.9 -787.6)"/><circle class="cls-4" cx="23" cy="278.6" r="21"/><circle class="cls-4" cx="119" cy="278.6" r="21"/><circle class="cls-5" cx="296.4" cy="278.6" r="21"/><circle class="cls-5" cx="392.4" cy="278.6" r="21"/><path class="cls-6" d="M617.1,843.2h100v50h-100v-50Z" transform="translate(-80.9 -787.6)"/><path class="cls-1" d="M640.3,874.2V863.6h6.5V865h-5v3.4h4.5v1.4h-4.5v4.5h-1.5v-0.1Zm14.6-2a3.27,3.27,0,0,1-3.2,2.3,3.6,3.6,0,0,1-3.6-3.9,3.54,3.54,0,0,1,3.4-3.8c2.2,0,3.5,1.5,3.5,3.8V871h-5.4a2.16,2.16,0,0,0,2.2,2.2,1.82,1.82,0,0,0,2-1.5Zm-1.4-2.3a1.79,1.79,0,0,0-2-1.8,2,2,0,0,0-2,1.8h4Zm5.8,0.2,1.9-.3a0.65,0.65,0,0,0,.6-0.5,1.36,1.36,0,0,0-1.6-1.3,1.5,1.5,0,0,0-1.6,1.5l-1.4-.3a2.79,2.79,0,0,1,3-2.3c2.2,0,3,1.2,3,2.6v3.6c0,0.6.1,1,.1,1.2h-1.4c0-.2-0.1-0.5-0.1-1a2.57,2.57,0,0,1-2.3,1.2A2.2,2.2,0,1,1,659.3,870.1Zm2.5,1v-0.3l-2.2.3a1.11,1.11,0,0,0-1.1,1.1,1.06,1.06,0,0,0,1.2,1A1.85,1.85,0,0,0,661.8,871.1ZM668,867h1.6v1.3H668v3.8a0.86,0.86,0,0,0,1,1,1.27,1.27,0,0,0,.6-0.1v1.2a7.72,7.72,0,0,1-1,.1,1.92,1.92,0,0,1-2-2.1v-4h-1.4V867h0.4a1,1,0,0,0,1.1-1.1v-1.2H668V867h0Zm6.8,7.5a2.68,2.68,0,0,1-2.7-2.9V867h1.4v4.3c0,1,.4,1.9,1.6,1.9a1.65,1.65,0,0,0,1.7-1.8V867h1.4v5.9a4.15,4.15,0,0,0,.1,1.3H677c0-.2-0.1-0.6-0.1-0.9a2.35,2.35,0,0,1-2.1,1.2h0Zm10.6-6.1h-0.6c-1.2,0-2,.6-2,2.2v3.6h-1.4V867h1.4v1.3a2.27,2.27,0,0,1,2.2-1.4h0.5v1.5h-0.1Zm8.5,3.8a3.27,3.27,0,0,1-3.2,2.3,3.6,3.6,0,0,1-3.6-3.9,3.54,3.54,0,0,1,3.4-3.8c2.2,0,3.5,1.5,3.5,3.8V871h-5.4a2.16,2.16,0,0,0,2.2,2.2,1.82,1.82,0,0,0,2-1.5Zm-1.4-2.3a1.79,1.79,0,0,0-2-1.8,2,2,0,0,0-2,1.8h4Z" transform="translate(-80.9 -787.6)"/><path class="cls-7" d="M667.1,939V915.5M678,930.3l-10.9,10.9-10.9-10.9" transform="translate(-80.9 -787.6)"/><path class="cls-5" d="M423.3,1158.2h100v50h-100v-50Z" transform="translate(-80.9 -787.6)"/><path class="cls-1" d="M458.6,1189.2v-8.3l-3.6,8.3h-1.3l-3.6-8.3v8.3h-1.5v-10.6h2l3.7,8.7,3.8-8.7h2v10.6h-1.5Zm6.4-4.2,1.9-.3a0.65,0.65,0,0,0,.6-0.5,1.36,1.36,0,0,0-1.6-1.3,1.5,1.5,0,0,0-1.6,1.5l-1.4-.3a2.79,2.79,0,0,1,3-2.3c2.2,0,3,1.2,3,2.6v3.6c0,0.6.1,1,.1,1.2h-1.4c0-.2-0.1-0.5-0.1-1a2.57,2.57,0,0,1-2.3,1.2,2.21,2.21,0,0,1-2.4-2.2,2.29,2.29,0,0,1,2.2-2.2h0Zm2.5,1.1v-0.3l-2.2.3a1.11,1.11,0,0,0-1.1,1.1,1.06,1.06,0,0,0,1.2,1A1.85,1.85,0,0,0,467.5,1186.1Zm5,0.7a1.51,1.51,0,0,0,1.7,1.3,1,1,0,0,0,1.2-1,1,1,0,0,0-.9-0.9l-1.2-.3a2,2,0,0,1-1.8-2,2.54,2.54,0,0,1,2.6-2.3,2.46,2.46,0,0,1,2.7,1.9l-1.2.5a1.45,1.45,0,0,0-1.5-1.2,1.13,1.13,0,0,0-1.2,1,1,1,0,0,0,.8.9l1.2,0.3a2.22,2.22,0,0,1,2,2.1,2.4,2.4,0,0,1-2.6,2.2,2.66,2.66,0,0,1-2.9-2.1l1.1-.4h0Zm8.8-4.8h1.6v1.3h-1.6v3.8a0.86,0.86,0,0,0,1,1,1.27,1.27,0,0,0,.6-0.1v1.2a7.72,7.72,0,0,1-1,.1,1.92,1.92,0,0,1-2-2.1v-4h-1.4v-1.3h0.4a1,1,0,0,0,1.1-1.1v-1.2h1.3v2.4h0Zm10.4,5.1a3.27,3.27,0,0,1-3.2,2.3,3.6,3.6,0,0,1-3.6-3.9,3.54,3.54,0,0,1,3.4-3.8c2.2,0,3.5,1.5,3.5,3.8v0.5h-5.4a2.16,2.16,0,0,0,2.2,2.2,1.82,1.82,0,0,0,2-1.5Zm-1.4-2.3a1.79,1.79,0,0,0-2-1.8,2,2,0,0,0-2,1.8h4Zm8-1.4h-0.6c-1.2,0-2,.6-2,2.2v3.6h-1.4V1182h1.4v1.3a2.27,2.27,0,0,1,2.2-1.4h0.5v1.5h-0.1Z" transform="translate(-80.9 -787.6)"/><path class="cls-7" d="M473.3,1111.6v23.5m-10.9-14.8,10.9-10.8,10.8,10.8M624.6,940.9a84.53,84.53,0,0,0-80.7-63.4" transform="translate(-80.9 -787.6)"/><path class="cls-1" d="M362.3,867.4h-1.6v4.3h-1.5V861.1h4a3.13,3.13,0,0,1,3.3,3.2,3,3,0,0,1-2.6,3l2.5,4.5h-1.7l-2.4-4.4h0Zm0.7-1.3a1.81,1.81,0,1,0,0-3.6h-2.2v3.6H363Zm12.1,3.6a3.27,3.27,0,0,1-3.2,2.3,3.6,3.6,0,0,1-3.6-3.9,3.54,3.54,0,0,1,3.4-3.8c2.2,0,3.5,1.5,3.5,3.8v0.4h-5.4a2.16,2.16,0,0,0,2.2,2.2,1.82,1.82,0,0,0,2-1.5Zm-1.4-2.3a1.79,1.79,0,0,0-2-1.8,2,2,0,0,0-2,1.8h4Zm4,4.4v-7.2H379v1a2.63,2.63,0,0,1,2.2-1.2,2.24,2.24,0,0,1,2.2,1.4,2.72,2.72,0,0,1,2.4-1.4,2.47,2.47,0,0,1,2.5,2.7v4.7h-1.4v-4.5a1.44,1.44,0,0,0-1.5-1.6,1.71,1.71,0,0,0-1.7,1.8v4.4h-1.4v-4.5a1.4,1.4,0,0,0-1.5-1.6,1.71,1.71,0,0,0-1.7,1.8v4.3h-1.4v-0.1Zm20.4-3.6a3.7,3.7,0,1,1-3.7-3.8A3.6,3.6,0,0,1,398.1,868.2Zm-1.4,0a2.23,2.23,0,1,0-4.4,0c0,1.7,1,2.6,2.2,2.6A2.34,2.34,0,0,0,396.7,868.2Zm7,3.6h-1.4l-2.9-7.2H401l2.1,5.6,2.1-5.6h1.5l-3,7.2h0Zm11.1-2.1a3.27,3.27,0,0,1-3.2,2.3,3.6,3.6,0,0,1-3.6-3.9,3.54,3.54,0,0,1,3.4-3.8c2.2,0,3.5,1.5,3.5,3.8v0.4h-5.4a2.16,2.16,0,0,0,2.2,2.2,1.82,1.82,0,0,0,2-1.5Zm-1.4-2.3a1.79,1.79,0,0,0-2-1.8,2,2,0,0,0-2,1.8h4Zm4.6,2.1a1.51,1.51,0,0,0,1.7,1.3,1,1,0,0,0,1.2-1,1,1,0,0,0-.9-0.9l-1.2-.3a2,2,0,0,1-1.8-2,2.54,2.54,0,0,1,2.6-2.3,2.46,2.46,0,0,1,2.7,1.9l-1.2.5a1.45,1.45,0,0,0-1.5-1.2,1.13,1.13,0,0,0-1.2,1,1,1,0,0,0,.8.9l1.2,0.3a2.22,2.22,0,0,1,2,2.1,2.4,2.4,0,0,1-2.6,2.2,2.66,2.66,0,0,1-2.9-2.1l1.1-.4h0Zm12.2-1.3a2.24,2.24,0,0,0,2.2,2.5,2,2,0,0,0,2-1.5l1.2,0.5a3.32,3.32,0,0,1-3.3,2.2,3.58,3.58,0,0,1-3.6-3.8,3.63,3.63,0,0,1,3.6-3.8,3.14,3.14,0,0,1,3.2,2.3l-1.3.5a1.87,1.87,0,0,0-1.9-1.5,2.33,2.33,0,0,0-2.1,2.6h0Zm9.3,3.6h-1.4V860.9h1.4v4.5a2.53,2.53,0,0,1,2.2-1.1c1.7,0,2.6,1.2,2.6,2.9v4.6h-1.4v-4.3a1.56,1.56,0,0,0-1.7-1.8c-1.1,0-1.6.8-1.7,1.9v4.2h0Zm9.5-4.1,1.9-.3a0.65,0.65,0,0,0,.6-0.5,1.36,1.36,0,0,0-1.6-1.3,1.5,1.5,0,0,0-1.6,1.5l-1.4-.3a2.79,2.79,0,0,1,3-2.3c2.2,0,3,1.2,3,2.6v3.6c0,0.6.1,1,.1,1.2h-1.4c0-.2-0.1-0.5-0.1-1a2.57,2.57,0,0,1-2.3,1.2,2.2,2.2,0,1,1-.2-4.4h0Zm2.5,1v-0.3l-2.2.3a1,1,0,0,0-1,1.1,1.06,1.06,0,0,0,1.2,1A1.82,1.82,0,0,0,451.5,868.7Zm5.8,3.1h-1.4v-7.2h1.4v1a2.41,2.41,0,0,1,2.2-1.2c1.7,0,2.6,1.2,2.6,2.9v4.6h-1.4v-4.3a1.56,1.56,0,0,0-1.7-1.8,1.77,1.77,0,0,0-1.7,2v4Zm8.6,0.1a2.12,2.12,0,0,0,4.2-.5v-1a2.26,2.26,0,0,1-2.2,1.2,3.51,3.51,0,0,1,0-7,2.21,2.21,0,0,1,2.2,1.1v-1h1.4v6.7a3.3,3.3,0,0,1-3.6,3.6,3.11,3.11,0,0,1-3.3-2.7l1.3-.4h0Zm4.2-4a2.05,2.05,0,0,0-2.1-2.3,2.11,2.11,0,0,0-2.1,2.3,2.05,2.05,0,0,0,2.1,2.3C469.3,870.3,470.1,869.3,470.1,867.9Zm10.7,1.8a3.27,3.27,0,0,1-3.2,2.3,3.6,3.6,0,0,1-3.6-3.9,3.54,3.54,0,0,1,3.4-3.8c2.2,0,3.5,1.5,3.5,3.8v0.4h-5.4a2.16,2.16,0,0,0,2.2,2.2,1.82,1.82,0,0,0,2-1.5Zm-1.5-2.3a1.79,1.79,0,0,0-2-1.8,2,2,0,0,0-2,1.8h4Zm4.7,2.1a1.51,1.51,0,0,0,1.7,1.3,1,1,0,0,0,1.2-1,1,1,0,0,0-.9-0.9l-1.2-.3a2,2,0,0,1-1.8-2,2.54,2.54,0,0,1,2.6-2.3,2.46,2.46,0,0,1,2.7,1.9l-1.2.5a1.45,1.45,0,0,0-1.5-1.2,1.13,1.13,0,0,0-1.2,1,1,1,0,0,0,.8.9l1.2,0.3a2.22,2.22,0,0,1,2,2.1,2.4,2.4,0,0,1-2.6,2.2,2.66,2.66,0,0,1-2.9-2.1l1.1-.4h0Zm13.3-3.7v5.9h-1.5v-5.9h-1.3v-1.3h1.3v-1.2a2.34,2.34,0,0,1,2.4-2.5,0.91,0.91,0,0,1,.8.2v1.3a3.54,3.54,0,0,0-.6-0.1,1,1,0,0,0-1.1,1.2v1.1H499v1.3h-1.7Zm8,0.2h-0.6c-1.2,0-2,.6-2,2.2v3.6h-1.4v-7.2h1.4v1.3a2.27,2.27,0,0,1,2.2-1.4h0.5V866h-0.1Zm8.9,2.2a3.7,3.7,0,1,1-3.7-3.8A3.54,3.54,0,0,1,514.2,868.2Zm-1.4,0a2.35,2.35,0,0,0-2.3-2.6c-1.2,0-2.2.9-2.2,2.6a2.34,2.34,0,0,0,2.2,2.6A2.47,2.47,0,0,0,512.8,868.2Zm4,3.6v-7.2h1.3v1a2.63,2.63,0,0,1,2.2-1.2,2.24,2.24,0,0,1,2.2,1.4,2.72,2.72,0,0,1,2.4-1.4,2.47,2.47,0,0,1,2.5,2.7v4.7H526v-4.5a1.44,1.44,0,0,0-1.5-1.6,1.71,1.71,0,0,0-1.7,1.8v4.4h-1.4v-4.5a1.4,1.4,0,0,0-1.5-1.6,1.71,1.71,0,0,0-1.7,1.8v4.3h-1.4v-0.1ZM370.7,882.6h1.6v1.3h-1.6v3.8a0.86,0.86,0,0,0,1,1,1.27,1.27,0,0,0,.6-0.1v1.2a7.72,7.72,0,0,1-1,.1,1.92,1.92,0,0,1-2-2.1v-4h-1.4v-1.3h0.4a1,1,0,0,0,1.1-1.1v-1.2h1.3v2.4h0Zm5.6,7.2h-1.4V878.9h1.4v4.5a2.53,2.53,0,0,1,2.2-1.1c1.7,0,2.6,1.2,2.6,2.9v4.6h-1.4v-4.3a1.56,1.56,0,0,0-1.7-1.8c-1.1,0-1.6.8-1.7,1.9v4.2h0Zm14.1-2.1a3.27,3.27,0,0,1-3.2,2.3,3.6,3.6,0,0,1-3.6-3.9,3.54,3.54,0,0,1,3.4-3.8c2.2,0,3.5,1.5,3.5,3.8v0.4H385a2.16,2.16,0,0,0,2.2,2.2,1.82,1.82,0,0,0,2-1.5Zm-1.4-2.3a1.79,1.79,0,0,0-2-1.8,2,2,0,0,0-2,1.8h4Zm12.5-1.4h-0.6c-1.2,0-2,.6-2,2.2v3.6h-1.4v-7.2h1.4v1.3a2.27,2.27,0,0,1,2.2-1.4h0.5V884h-0.1Zm8.4,3.7a3.27,3.27,0,0,1-3.2,2.3,3.6,3.6,0,0,1-3.6-3.9,3.54,3.54,0,0,1,3.4-3.8c2.2,0,3.5,1.5,3.5,3.8v0.4h-5.4a2.16,2.16,0,0,0,2.2,2.2,1.82,1.82,0,0,0,2-1.5Zm-1.4-2.3a1.79,1.79,0,0,0-2-1.8,2,2,0,0,0-2,1.8h4Zm7.2,4.4h-1.4l-2.9-7.2H413l2.1,5.6,2.1-5.6h1.5l-3,7.2h0Zm11-2.1a3.27,3.27,0,0,1-3.2,2.3,3.6,3.6,0,0,1-3.6-3.9,3.54,3.54,0,0,1,3.4-3.8c2.2,0,3.5,1.5,3.5,3.8v0.4h-5.4a2.16,2.16,0,0,0,2.2,2.2,1.82,1.82,0,0,0,2-1.5Zm-1.4-2.3a1.79,1.79,0,0,0-2-1.8,2,2,0,0,0-2,1.8h4Zm8-1.4h-0.6c-1.2,0-2,.6-2,2.2v3.6h-1.4v-7.2h1.4v1.3a2.27,2.27,0,0,1,2.2-1.4h0.5V884h-0.1Zm4.5-1.4h1.6v1.3h-1.6v3.8a0.86,0.86,0,0,0,1,1,1.27,1.27,0,0,0,.6-0.1v1.2a7.72,7.72,0,0,1-1,.1,1.92,1.92,0,0,1-2-2.1v-4H435v-1.3h0.4a1,1,0,0,0,1.1-1.1v-1.2h1.3v2.4h0Zm10.4,5.1A3.27,3.27,0,0,1,445,890a3.6,3.6,0,0,1-3.6-3.9,3.54,3.54,0,0,1,3.4-3.8c2.2,0,3.5,1.5,3.5,3.8v0.4h-5.4a2.16,2.16,0,0,0,2.2,2.2,1.82,1.82,0,0,0,2-1.5Zm-1.4-2.3a1.79,1.79,0,0,0-2-1.8,2,2,0,0,0-2,1.8h4Zm9.1,3.3a2.33,2.33,0,0,1-2.2,1.3c-2.1,0-3.4-1.7-3.4-3.8a3.6,3.6,0,0,1,3.4-3.8,2.12,2.12,0,0,1,2.2,1.2v-4.7h1.4v9.5a10.86,10.86,0,0,0,.1,1.3H456C456,889.5,455.9,889.2,455.9,888.7Zm-2.1,0c1.3,0,2.1-1.1,2.1-2.6s-0.8-2.5-2.1-2.5-2.1,1-2.1,2.5S452.4,888.7,453.8,888.7Zm11.9-2.5a2.24,2.24,0,0,0,2.2,2.5,2,2,0,0,0,2-1.5l1.2,0.5a3.32,3.32,0,0,1-3.3,2.2,3.58,3.58,0,0,1-3.6-3.8,3.63,3.63,0,0,1,3.6-3.8,3.14,3.14,0,0,1,3.2,2.3l-1.3.5a1.87,1.87,0,0,0-1.9-1.5,2.33,2.33,0,0,0-2.1,2.6h0Zm14.6,0a3.7,3.7,0,1,1-3.7-3.8A3.6,3.6,0,0,1,480.3,886.2Zm-1.4,0a2.23,2.23,0,1,0-4.4,0c0,1.7,1,2.6,2.2,2.6A2.34,2.34,0,0,0,478.9,886.2Zm3.9,3.6v-7.2h1.3v1a2.51,2.51,0,0,1,2.2-1.2,2.24,2.24,0,0,1,2.2,1.4,2.72,2.72,0,0,1,2.4-1.4,2.47,2.47,0,0,1,2.5,2.7v4.7H492v-4.5a1.44,1.44,0,0,0-1.5-1.6,1.71,1.71,0,0,0-1.7,1.8v4.4h-1.4v-4.5a1.4,1.4,0,0,0-1.5-1.6,1.71,1.71,0,0,0-1.7,1.8v4.3h-1.4v-0.1Zm13.7,0v-7.2h1.3v1a2.51,2.51,0,0,1,2.2-1.2,2.24,2.24,0,0,1,2.2,1.4,2.72,2.72,0,0,1,2.4-1.4,2.47,2.47,0,0,1,2.5,2.7v4.7h-1.4v-4.5a1.44,1.44,0,0,0-1.5-1.6,1.71,1.71,0,0,0-1.7,1.8v4.4h-1.4v-4.5a1.4,1.4,0,0,0-1.5-1.6,1.71,1.71,0,0,0-1.7,1.8v4.3h-1.4v-0.1Zm14.2-11a1,1,0,1,1,0,2,1,1,0,0,1-1-1A1.08,1.08,0,0,1,510.7,878.8Zm-0.6,11v-7.2h1.4v7.2h-1.4Zm6.4-7.2h1.6v1.3h-1.6v3.8a0.86,0.86,0,0,0,1,1,1.27,1.27,0,0,0,.6-0.1v1.2a7.72,7.72,0,0,1-1,.1,1.92,1.92,0,0,1-2-2.1v-4h-1.4v-1.3h0.4a1,1,0,0,0,1.1-1.1v-1.2h1.3v2.4h0Z" transform="translate(-80.9 -787.6)"/><path class="cls-7" d="M631.8,927.5l-6.6,13.8-13.9-6.6" transform="translate(-80.9 -787.6)"/></svg>